<?xml version="1.0" standalone="no"?>
<!DOCTYPE svg PUBLIC "-//W3C//DTD SVG 20010904//EN"
 "http://www.w3.org/TR/2001/REC-SVG-20010904/DTD/svg10.dtd">
<svg version="1.0" xmlns="http://www.w3.org/2000/svg"
 width="712.000000pt" height="712.000000pt" viewBox="0 0 712.000000 712.000000"
 preserveAspectRatio="xMidYMid meet">

<g transform="translate(0.000000,712.000000) scale(0.100000,-0.100000)"
fill="#000000" stroke="none">
<path d="M3325 7105 c-111 -16 -261 -51 -380 -90 -175 -57 -438 -193 -557
-288 -29 -23 -74 -58 -99 -77 -86 -66 -250 -267 -351 -430 -94 -152 -171 -345
-204 -512 -15 -81 -15 -89 0 -113 9 -13 28 -32 42 -42 42 -27 103 -193 122
-331 17 -122 -39 -326 -115 -419 l-36 -44 23 -87 c25 -99 128 -323 168 -366
15 -16 51 -40 81 -53 52 -23 62 -24 223 -21 92 2 168 4 168 4 0 1 -30 32 -68
70 -105 108 -200 231 -243 317 -123 244 -167 544 -119 820 23 134 101 379 155
487 116 232 296 435 532 603 58 41 285 157 366 187 97 36 341 90 449 100 113
10 210 3 373 -27 313 -56 630 -233 875 -490 100 -103 141 -158 209 -273 144
-246 211 -508 211 -825 -1 -314 -121 -616 -350 -875 -30 -34 -56 -66 -58 -71
-5 -13 239 -11 313 2 60 10 62 12 94 64 43 70 100 205 141 330 45 138 45 198
-3 330 -44 122 -53 186 -37 268 17 90 76 234 110 274 38 42 38 61 1 206 -54
214 -193 506 -301 632 -28 33 -60 76 -70 95 -19 36 -179 200 -240 246 -153
115 -443 270 -600 321 -234 77 -592 111 -825 78z m239 -87 c20 -28 21 -92 2
-111 -10 -9 -51 -16 -134 -20 -66 -4 -144 -13 -173 -21 -401 -107 -662 -246
-883 -471 -194 -197 -349 -453 -416 -690 -51 -179 -50 -177 -82 -171 -15 3
-39 13 -54 22 -20 14 -24 22 -19 43 4 14 13 60 20 101 16 89 30 133 83 260
117 285 360 591 585 740 117 77 303 170 356 177 23 3 41 9 41 12 0 19 104 56
190 66 30 3 59 10 65 14 20 16 65 19 65 5 0 -15 5 -16 37 -8 12 3 25 14 28 24
5 15 13 18 47 14 23 -3 44 -1 47 4 10 14 74 30 128 31 43 1 55 -3 67 -21z"/>
<path d="M3365 6504 c-203 -41 -457 -171 -565 -291 -47 -53 -166 -225 -197
-288 -39 -77 -85 -221 -99 -315 -20 -128 -16 -349 7 -460 29 -139 135 -403
187 -471 50 -64 52 -76 19 -148 -26 -57 -30 -78 -31 -151 0 -47 3 -102 7 -122
6 -30 4 -41 -12 -57 -25 -25 -154 -66 -256 -81 -96 -14 -425 -9 -510 7 -33 7
-96 17 -140 24 -236 34 -546 146 -736 265 -95 60 -227 194 -297 302 -110 171
-123 367 -35 555 108 230 384 316 590 184 126 -81 201 -188 226 -318 24 -131
-34 -300 -137 -399 -67 -66 -72 -84 -18 -74 77 14 203 95 262 169 64 81 110
201 125 326 17 156 -100 397 -250 512 -61 46 -218 123 -299 145 -45 13 -98 17
-201 16 -130 -1 -146 -3 -225 -32 -127 -46 -315 -148 -326 -176 -3 -7 -36 -36
-74 -65 -60 -44 -74 -61 -107 -128 -35 -72 -38 -84 -39 -173 -1 -52 -2 -101
-3 -108 -1 -7 -26 -24 -55 -37 -30 -13 -59 -32 -64 -42 -16 -30 -23 -106 -23
-237 -1 -139 10 -187 45 -206 13 -7 30 -23 37 -36 11 -21 10 -28 -9 -54 -28
-37 -27 -50 2 -136 27 -81 64 -157 115 -237 29 -46 43 -59 73 -67 45 -13 68
-43 68 -90 0 -34 25 -87 56 -118 9 -8 22 -25 30 -38 17 -25 163 -127 206 -143
17 -6 38 -7 60 0 45 13 45 12 71 -18 91 -110 163 -163 219 -163 13 0 38 -9 56
-20 50 -31 110 -36 177 -15 l56 18 34 -33 c19 -19 35 -36 35 -39 -1 -22 -31
-36 -126 -58 -65 -15 -118 -33 -130 -45 -12 -10 -50 -26 -84 -34 -122 -28
-306 -146 -376 -241 -16 -21 -53 -66 -84 -99 -65 -73 -130 -179 -130 -214 -1
-45 -26 -74 -82 -95 -67 -26 -79 -50 -86 -166 -8 -144 26 -319 62 -319 9 0 30
-13 48 -30 l33 -29 -18 -31 c-37 -67 -20 -110 101 -262 70 -88 91 -102 139
-95 47 8 60 1 89 -48 14 -25 45 -56 72 -73 84 -54 124 -61 329 -64 175 -2 192
0 245 21 93 36 186 107 166 126 -11 12 -90 -8 -125 -32 -43 -29 -55 -22 -22
13 25 28 148 89 158 79 3 -3 4 -22 2 -40 -2 -23 4 -43 17 -60 13 -17 22 -49
27 -98 5 -46 14 -80 26 -96 26 -33 24 -45 -17 -90 -19 -22 -37 -54 -40 -73 -7
-39 27 -220 62 -336 22 -73 29 -85 64 -108 50 -33 56 -51 29 -88 -20 -27 -21
-33 -10 -75 17 -63 84 -164 155 -233 47 -46 66 -58 91 -58 37 0 75 -35 75 -69
0 -30 45 -71 134 -124 73 -42 128 -52 183 -33 16 6 27 2 44 -18 37 -42 104
-58 228 -54 100 3 112 5 136 28 21 20 36 24 88 25 50 1 77 9 140 39 168 81
278 221 311 395 32 167 17 321 -41 432 l-35 67 36 73 c20 41 49 127 65 193 17
65 37 126 46 136 9 10 32 20 51 23 68 11 117 65 210 228 17 31 34 77 38 102 8
51 38 97 64 97 65 0 149 136 177 285 15 77 36 125 55 125 5 0 42 -18 82 -40
40 -22 81 -40 90 -40 25 0 67 -46 90 -99 42 -98 194 -261 244 -261 24 0 54
-47 54 -84 0 -49 130 -322 158 -330 11 -4 31 -17 45 -30 24 -22 25 -26 15 -72
-8 -36 -8 -81 1 -165 9 -84 10 -137 3 -190 -6 -41 -14 -108 -17 -149 -7 -81
-46 -170 -106 -243 -43 -52 -145 -99 -229 -105 -76 -5 -122 13 -190 74 -80 73
-100 174 -60 304 12 36 23 104 27 151 5 71 2 98 -17 161 -24 82 -32 88 -112
88 -27 0 -30 -3 -23 -22 4 -13 9 -48 12 -78 5 -57 -7 -87 -122 -301 -14 -26
-31 -71 -39 -100 -12 -43 -15 -48 -15 -24 -2 55 29 149 73 225 71 124 81 181
49 262 -12 30 -13 43 -5 46 36 12 -19 70 -98 105 -58 26 -138 27 -175 3 -31
-20 -26 -28 29 -46 73 -24 176 -141 176 -200 0 -12 -22 -63 -49 -113 -71 -132
-91 -207 -98 -357 -6 -139 10 -234 49 -299 45 -74 151 -182 219 -222 69 -41
140 -55 181 -35 14 6 26 0 49 -25 28 -30 35 -33 110 -37 110 -6 196 12 235 50
28 26 35 28 54 18 13 -7 40 -10 61 -7 89 12 259 125 259 171 0 13 9 35 20 49
17 21 28 26 62 24 37 -1 45 3 85 48 24 26 69 90 99 141 58 99 66 136 38 184
-21 35 -14 55 30 81 22 13 41 36 55 68 23 55 61 269 61 347 0 44 -4 54 -35 84
-40 39 -43 60 -15 98 14 19 23 53 29 100 12 115 18 117 153 46 l113 -59 115 1
c320 4 329 6 413 47 58 29 84 48 102 77 31 49 41 55 94 55 38 1 48 5 77 40 51
59 154 235 154 262 0 12 -5 43 -12 67 -14 52 -5 68 51 94 30 14 38 25 49 67
19 73 24 290 8 344 -16 55 -47 82 -85 75 -22 -5 -32 0 -50 21 -11 15 -21 42
-21 59 0 65 -150 289 -252 377 -103 89 -255 173 -413 228 -159 57 -166 93 -26
140 86 28 195 95 250 153 41 43 49 48 91 48 121 1 400 216 400 310 0 39 35 80
69 80 31 0 62 29 109 105 43 69 108 211 123 267 12 43 11 51 -10 93 -22 44
-22 47 -6 72 9 14 26 28 36 30 29 8 32 37 27 231 -5 183 -14 226 -49 237 -9 3
-29 15 -43 26 -24 19 -26 27 -26 98 0 76 -1 79 -56 171 -69 117 -109 167 -165
205 -24 16 -61 44 -82 62 -49 44 -192 109 -292 135 -68 18 -99 20 -205 15 -69
-3 -152 -13 -185 -22 -99 -27 -220 -89 -276 -142 -90 -83 -199 -243 -199 -292
0 -11 -7 -48 -16 -83 -27 -105 -4 -275 49 -360 8 -12 20 -39 26 -60 16 -50 79
-118 140 -151 49 -27 188 -63 199 -52 3 3 -26 35 -66 70 -81 74 -115 136 -138
248 -17 80 -8 170 24 252 35 88 136 196 232 246 37 19 64 24 153 27 100 4 111
3 162 -22 71 -35 129 -93 187 -186 86 -137 100 -270 48 -432 -40 -126 -103
-225 -208 -327 -101 -97 -172 -148 -291 -207 -281 -139 -620 -211 -1040 -221
-169 -4 -209 -2 -235 10 -17 9 -69 26 -115 39 -128 35 -127 33 -122 176 3 113
1 124 -23 178 -14 31 -26 64 -26 73 1 9 28 63 61 121 163 285 206 442 196 710
-8 223 -37 343 -124 513 -110 215 -254 360 -457 461 -194 95 -318 127 -496
125 -63 -1 -146 -8 -185 -15z m415 -124 c169 -40 299 -111 429 -235 258 -247
367 -609 296 -980 -26 -132 -111 -339 -159 -384 -35 -33 -42 -22 -17 28 30 58
99 276 116 366 23 118 30 289 16 385 -39 262 -172 486 -363 613 -146 96 -263
133 -438 138 -160 4 -170 3 -170 -25 0 -35 10 -56 26 -56 19 0 13 -23 -8 -32
-48 -20 2 -38 103 -38 67 0 67 0 71 -104 l3 -59 43 -12 c23 -7 54 -20 67 -29
24 -16 27 -15 66 11 97 65 79 67 164 -17 68 -68 90 -100 66 -100 -4 0 -21 -18
-36 -40 l-28 -41 21 -62 c12 -34 22 -73 24 -87 3 -23 8 -26 81 -34 l77 -8 0
-97 c0 -135 -3 -141 -55 -141 -59 0 -105 -10 -105 -24 0 -6 -12 -38 -25 -71
l-25 -60 41 -58 40 -58 -72 -74 c-40 -41 -76 -75 -81 -75 -5 0 -33 18 -63 41
l-53 40 -39 -19 c-21 -11 -57 -25 -80 -32 l-41 -13 -9 -81 -8 -81 -100 2
c-115 3 -125 9 -126 82 -1 69 -9 80 -84 112 -81 34 -100 30 -156 -27 -18 -19
-38 -34 -45 -34 -17 0 -150 143 -157 169 -4 16 1 28 18 43 19 17 23 28 20 64
-2 24 0 46 4 49 5 2 4 25 -2 50 l-11 46 -69 -2 c-64 -2 -71 0 -83 22 -7 13
-13 45 -14 72 0 48 -7 54 -58 48 -8 -1 -20 3 -28 10 -8 6 -14 8 -14 3 0 -5 -4
-3 -9 5 -15 24 -34 -85 -26 -148 4 -31 8 -97 10 -147 1 -50 8 -108 15 -128 7
-21 10 -40 7 -43 -6 -6 26 -97 62 -176 79 -174 -19 -120 -109 60 -62 125 -85
214 -101 380 -20 224 5 397 80 559 52 110 89 163 185 263 152 156 343 262 531
292 88 14 282 3 385 -21z m98 -243 c3 -39 0 -56 -11 -66 -14 -11 -17 -7 -27
28 -11 42 -5 91 12 91 5 0 6 6 2 13 -5 9 -4 9 6 0 7 -7 15 -36 18 -66z m-2756
-391 c150 -29 234 -71 343 -172 l50 -46 -65 45 c-146 101 -258 132 -444 125
-133 -6 -277 -47 -339 -99 -21 -17 -36 -33 -34 -35 4 -4 57 14 122 41 56 24
34 0 -55 -59 -71 -48 -90 -51 -90 -14 0 18 -4 17 -37 -12 -63 -55 -105 -112
-99 -133 3 -13 -5 -28 -24 -46 -49 -44 -77 -125 -99 -281 -10 -78 -22 -144
-24 -147 -12 -11 -27 77 -27 156 0 68 6 101 31 175 50 144 83 206 155 284 171
187 395 264 636 218z m5158 -12 c177 -50 363 -208 446 -379 35 -72 89 -246 82
-266 -2 -6 -20 40 -41 102 -40 118 -121 268 -178 330 -67 72 -153 125 -241
150 -68 19 -107 23 -218 23 -126 0 -142 -2 -232 -32 -107 -36 -166 -75 -244
-162 -63 -70 -88 -110 -120 -196 -44 -119 -31 -302 31 -413 16 -27 19 -38 9
-30 -21 17 -63 101 -79 158 -37 129 -22 263 45 399 127 256 453 395 740 316z
m67 -210 c80 -38 148 -106 189 -186 64 -125 72 -350 22 -548 -17 -65 -110
-224 -173 -293 -30 -33 -55 -64 -55 -69 0 -26 -217 -181 -337 -241 -132 -66
-326 -140 -436 -166 -296 -70 -409 -85 -623 -79 -148 4 -184 9 -291 36 -266
69 -388 135 -161 87 359 -76 709 -58 1122 60 589 167 936 518 936 946 0 216
-84 359 -271 459 -69 38 -72 40 -34 35 22 -4 72 -22 112 -41z m-5737 -44 c0
-5 -5 -10 -11 -10 -5 0 -7 5 -4 10 3 6 8 10 11 10 2 0 4 -4 4 -10z m-31 -247
c-9 -24 -13 -81 -13 -153 2 -249 83 -432 266 -605 221 -209 519 -339 953 -416
299 -53 595 -51 852 7 62 14 117 23 123 19 20 -12 10 -51 -17 -67 -37 -21
-156 -54 -267 -73 -101 -17 -366 -20 -519 -5 -127 12 -406 71 -528 111 -127
41 -334 143 -445 218 -151 102 -300 264 -371 406 -88 172 -108 427 -47 573 19
46 30 34 13 -15z m1030 -144 c1 -85 -15 -163 -46 -222 -24 -48 -25 -23 -1 34
20 48 23 71 23 203 0 129 2 144 12 110 6 -22 12 -78 12 -125z m-1389 -96 c27
-82 39 -257 21 -291 -15 -28 -51 -28 -75 0 -16 19 -18 32 -12 122 4 56 8 126
9 156 4 101 27 106 57 13z m6717 -83 c0 -74 3 -153 5 -175 3 -35 0 -40 -19
-43 -40 -6 -58 39 -57 143 1 84 14 181 29 206 4 5 14 9 23 7 15 -3 17 -21 19
-138z m-2740 -261 l28 -12 -35 -8 c-19 -4 -43 -6 -53 -3 -28 9 -140 -51 -201
-107 -73 -66 -95 -105 -121 -208 -22 -89 -36 -106 -55 -71 -15 28 3 149 32
208 11 24 51 74 87 111 53 53 80 73 127 89 63 23 136 23 191 1z m-1103 -28
c74 -36 160 -123 171 -171 4 -17 18 -58 31 -90 25 -63 32 -147 14 -181 -17
-31 -27 -22 -34 32 -13 93 -54 176 -120 243 -71 72 -144 110 -242 127 -38 6
-70 13 -72 14 -2 1 0 14 3 28 9 32 23 37 112 33 57 -2 86 -10 137 -35z m3439
-26 c5 -12 -71 -141 -78 -133 -1 2 1 26 4 53 9 70 58 122 74 80z m-6187 -100
c49 -53 97 -157 102 -224 4 -49 1 -59 -22 -83 -14 -16 -31 -28 -39 -28 -21 0
-92 81 -120 137 -14 27 -33 75 -42 108 l-18 59 29 22 c16 12 34 27 39 33 18
18 37 12 71 -24z m6530 0 c29 -29 28 -30 -17 -145 -68 -172 -177 -250 -224
-160 -20 38 -19 53 9 132 56 157 166 239 232 173z m-3984 -114 c6 -86 30 -134
86 -174 37 -27 52 -32 115 -34 67 -2 72 -3 75 -25 5 -38 -30 -61 -97 -66 -72
-5 -137 25 -198 91 -64 69 -78 106 -74 195 1 26 52 82 74 82 11 0 16 -18 19
-69z m1396 29 c63 -92 -28 -272 -158 -315 -98 -32 -195 -4 -188 54 3 24 6 25
53 22 126 -6 215 77 231 218 8 72 24 78 62 21z m-1256 -17 c22 -25 27 -45 16
-65 -21 -41 -78 -5 -78 49 0 28 4 33 23 33 13 0 31 -8 39 -17z m1078 -17 c0
-50 -61 -76 -68 -29 -2 13 5 27 20 37 32 23 48 20 48 -8z m2090 -150 c0 -2 -8
-10 -17 -17 -16 -13 -17 -12 -4 4 13 16 21 21 21 13z m289 -129 c8 -11 -4 -20
-59 -45 -88 -41 -165 -102 -199 -158 -47 -77 -58 -49 -12 31 39 67 64 89 163
141 94 49 92 49 107 31z m-5791 -16 c51 -26 119 -97 133 -139 6 -19 9 -55 6
-80 -6 -56 -33 -82 -87 -82 -83 0 -270 166 -270 240 0 39 18 50 79 50 69 0
126 -27 186 -87 25 -24 45 -41 45 -36 0 4 -35 41 -77 81 -79 73 -83 88 -15 53z
m5875 -53 c9 -11 17 -24 17 -28 0 -15 -95 -119 -140 -153 -50 -38 -142 -87
-163 -87 -20 0 -80 67 -74 82 26 66 126 149 233 193 65 28 99 26 127 -7z
m-5239 -18 c44 -20 104 -40 176 -61 43 -12 75 -29 55 -29 -29 0 -235 65 -288
90 -59 28 -60 30 -23 24 22 -3 58 -14 80 -24z m1643 -126 c-3 -19 -15 -47 -26
-63 -12 -16 -21 -34 -21 -40 0 -7 -10 -25 -21 -41 -17 -22 -22 -44 -23 -94 -1
-47 -6 -70 -19 -84 -26 -28 -137 -105 -137 -95 0 5 5 14 10 19 13 13 -7 57
-33 73 -14 9 -34 2 -110 -38 -114 -62 -193 -91 -372 -140 -171 -47 -316 -75
-500 -96 -255 -28 -418 -66 -590 -134 -111 -44 -123 -53 -118 -88 3 -19 -2
-35 -16 -49 -11 -13 -18 -30 -15 -41 4 -14 -5 -26 -35 -46 -22 -15 -72 -56
-110 -92 -63 -60 -101 -80 -101 -55 0 17 -56 11 -72 -7 -26 -30 -66 -116 -82
-179 -18 -72 -33 -286 -17 -264 11 17 16 9 24 -45 5 -27 23 -112 42 -190 l8
-30 -38 35 c-20 19 -43 46 -50 60 -23 45 -38 252 -27 385 15 187 67 296 212
445 201 206 438 308 861 369 358 52 473 77 689 147 243 80 371 157 555 335 85
83 103 96 118 87 15 -8 18 -17 14 -44z m1452 -188 c87 -58 255 -134 389 -176
116 -36 373 -89 607 -125 172 -26 351 -67 458 -104 172 -60 386 -203 497 -333
56 -66 104 -146 81 -136 -4 2 -39 39 -78 84 -80 90 -142 145 -223 196 -69 43
-105 57 -260 102 -173 50 -278 71 -470 95 -287 36 -508 83 -655 138 -176 66
-310 149 -430 268 -65 64 -165 188 -165 204 0 3 39 -32 88 -79 48 -47 120
-107 161 -134z m-1216 23 c-1 -83 -38 -249 -55 -249 -4 0 -8 -11 -8 -24 0 -13
-7 -29 -15 -36 -8 -7 -23 -31 -33 -54 -11 -22 -26 -47 -35 -55 -10 -7 -17 -20
-17 -27 0 -8 -4 -14 -8 -14 -5 0 -25 -24 -45 -52 -45 -64 -111 -138 -236 -263
-6 -5 -42 -43 -81 -82 -39 -40 -75 -73 -81 -73 -6 0 -9 -8 -7 -18 5 -18 -16
-46 -30 -39 -4 2 -17 -7 -29 -20 -12 -13 -20 -23 -16 -23 3 0 -7 -12 -23 -27
-16 -15 -32 -27 -36 -26 -3 2 -39 -39 -80 -89 -136 -170 -144 -183 -113 -194
8 -3 17 -21 21 -40 3 -19 12 -34 20 -34 8 0 17 0 22 0 4 0 7 4 7 9 0 5 3 13 8
17 4 4 7 2 7 -5 0 -20 -40 -72 -51 -66 -5 4 -9 -1 -9 -9 0 -8 -8 -22 -17 -31
-16 -16 -17 -16 -25 5 -4 11 -12 18 -18 15 -5 -3 -10 -1 -10 5 0 30 -34 -1
-55 -50 -13 -30 -29 -54 -35 -52 -6 1 -9 -2 -6 -7 4 -5 -1 -17 -10 -26 -9 -9
-18 -34 -19 -56 -3 -48 -5 -50 -34 -42 -13 3 -20 11 -17 19 3 8 2 14 -2 14
-14 -1 -43 -81 -88 -241 -37 -136 -46 -184 -50 -279 -3 -63 -2 -110 3 -105 26
32 47 -1 39 -60 -3 -16 -5 -33 -5 -37 -1 -4 -10 -15 -20 -25 -11 -10 -24 -34
-29 -53 -7 -24 -10 -28 -11 -13 -1 12 -5 24 -10 27 -5 3 -14 36 -21 72 -15 80
-9 191 19 324 10 52 24 150 30 218 15 170 43 246 161 446 140 238 234 350 600
721 141 143 286 301 323 350 85 114 148 234 183 353 15 51 32 91 38 89 7 -3
10 -36 9 -88z m-2028 60 c110 -41 161 -118 118 -179 -31 -45 -44 -51 -109 -47
-116 8 -264 100 -264 164 0 74 135 107 255 62z m4854 -5 c82 -33 74 -99 -19
-163 -55 -38 -204 -101 -238 -101 -52 0 -132 69 -132 114 0 56 63 99 202 140
98 29 134 31 187 10z m-3069 -113 c-10 -21 -30 -37 -30 -26 0 14 21 45 31 45
6 0 6 -7 -1 -19z m-1205 -36 c50 -24 95 -65 95 -86 0 -10 -54 -39 -73 -39 -8
0 -13 10 -13 23 1 30 -52 55 -140 66 -105 13 -152 -17 -93 -61 19 -14 49 -21
108 -25 44 -3 81 -10 81 -14 0 -5 -47 -9 -104 -9 -103 0 -105 0 -135 30 -40
40 -46 65 -26 96 27 42 70 55 163 50 63 -3 95 -10 137 -31z m1668 -167 c29
-55 45 -164 52 -345 5 -124 4 -173 -4 -173 -7 0 -11 -28 -11 -78 0 -42 -5 -93
-10 -112 -6 -19 -13 -71 -16 -115 -3 -44 -9 -91 -14 -105 -5 -14 -11 -49 -13
-79 -4 -46 -2 -54 14 -58 24 -7 24 -19 0 -26 -10 -2 -21 -17 -25 -33 -4 -16
-12 -32 -18 -35 -5 -4 -11 -42 -11 -85 -2 -79 -12 -104 -41 -104 -10 0 -13 -6
-9 -17 4 -10 2 -14 -4 -10 -10 6 -53 -69 -53 -93 0 -5 -3 -10 -7 -10 -9 0 -30
-34 -81 -130 -60 -114 -72 -139 -72 -150 0 -5 -4 -10 -9 -10 -5 0 -7 -9 -4
-20 3 -11 0 -20 -6 -20 -6 0 -11 -6 -11 -14 0 -7 -7 -19 -15 -26 -10 -8 -12
-17 -5 -29 7 -15 4 -17 -25 -15 -31 3 -34 0 -55 -47 -39 -93 -63 -224 -57
-324 7 -112 34 -264 50 -283 12 -15 17 -162 6 -162 -18 0 -61 141 -74 243 -9
62 -20 130 -26 152 -5 22 -14 89 -19 149 l-9 109 38 116 c39 116 94 237 156
341 72 119 188 411 239 603 45 164 103 622 113 885 3 78 9 142 12 142 4 0 14
-15 24 -32z m-2325 -435 c-28 -13 -53 -22 -55 -20 -6 7 9 37 19 37 5 0 6 5 3
10 -4 6 7 10 24 10 18 0 31 5 31 13 1 7 7 4 15 -7 13 -18 11 -21 -37 -43z
m3892 -34 c87 -22 133 -75 111 -127 -21 -51 -64 -66 -172 -59 -124 7 -149 17
-200 83 -44 58 -44 70 5 96 48 27 168 30 256 7z m-2666 -14 c60 -28 64 -49 20
-98 -58 -65 -86 -76 -187 -77 -100 0 -144 14 -171 55 -15 23 -16 31 -6 56 14
33 60 64 116 78 56 15 185 6 228 -14z m3237 -7 c41 -13 95 -52 109 -78 16 -29
-5 -69 -45 -85 -41 -18 -220 -20 -277 -5 -36 10 -98 69 -98 93 1 22 38 57 82
78 36 17 56 19 119 14 42 -3 92 -10 110 -17z m-3788 -2 c72 -30 84 -82 30
-132 -37 -34 -92 -46 -215 -48 -105 -1 -107 -1 -137 28 -60 58 -28 115 84 149
63 20 195 21 238 3z m-513 -146 c11 -11 20 -28 20 -37 0 -27 -112 -129 -179
-162 -73 -37 -100 -39 -130 -7 -22 24 -22 25 -6 60 22 46 87 104 156 138 65
33 112 35 139 8z m4695 -10 c68 -39 133 -102 152 -147 13 -33 13 -37 -5 -56
-31 -31 -63 -24 -148 33 -95 63 -121 87 -140 122 -16 32 -9 56 20 68 38 16 68
10 121 -20z m-3083 13 c-8 -3 -29 -22 -48 -42 -18 -20 -34 -30 -34 -23 0 15
24 42 38 42 6 0 12 7 16 15 3 8 13 15 23 14 12 0 14 -2 5 -6z m-951 -30 c25
-30 99 -55 180 -60 63 -5 82 -10 99 -28 l20 -22 -61 -79 c-95 -123 -154 -213
-214 -331 -31 -59 -60 -114 -66 -121 -21 -26 -44 -6 -79 65 -39 80 -107 167
-160 205 -19 14 -77 39 -129 57 -76 26 -102 31 -140 25 -60 -9 -111 -57 -111
-104 0 -27 3 -31 18 -24 9 4 37 9 62 12 42 3 49 0 93 -38 26 -24 57 -61 69
-84 54 -105 -4 -249 -130 -323 -64 -38 -165 -38 -247 0 -70 33 -142 104 -176
174 -28 58 -28 111 1 221 11 44 20 96 20 115 0 47 31 83 77 91 21 3 76 27 122
53 83 47 118 77 173 145 l26 33 49 -24 c42 -20 62 -23 160 -23 158 1 234 16
269 53 31 33 55 37 75 12z m3301 -8 c48 -41 117 -55 262 -55 108 0 139 4 174
20 51 23 59 20 94 -30 15 -21 48 -51 75 -66 26 -16 77 -48 112 -71 36 -24 73
-43 83 -43 28 0 58 -36 58 -70 0 -32 10 -78 45 -208 l22 -83 -22 -47 c-30 -64
-118 -158 -176 -188 -37 -18 -64 -24 -114 -24 -80 0 -121 19 -187 87 -119 121
-97 273 50 365 29 18 44 20 108 15 l74 -7 0 28 c0 33 -62 86 -123 104 -58 17
-228 -20 -239 -53 -2 -6 -24 -19 -48 -28 -32 -12 -51 -27 -69 -57 -14 -23 -34
-52 -43 -65 -16 -23 -23 -48 -49 -171 -10 -49 -16 -58 -34 -58 -32 0 -54 31
-135 185 -96 185 -137 250 -209 339 -34 41 -61 78 -61 82 0 4 7 16 17 26 12
13 31 18 75 18 83 0 141 17 174 51 34 35 48 36 86 4z m1318 -125 c0 -5 -2 -10
-4 -10 -3 0 -8 5 -11 10 -3 6 -1 10 4 10 6 0 11 -4 11 -10z m-3380 -25 c15
-18 7 -71 -19 -130 -12 -28 -40 -57 -92 -97 -112 -86 -147 -95 -198 -52 -39
32 -41 71 -6 130 60 102 271 202 315 149z m948 -17 c103 -49 183 -164 167
-239 -13 -58 -63 -63 -156 -17 -152 76 -229 232 -135 274 35 16 63 12 124 -18z
m-1478 -12 c0 -2 -7 -9 -15 -16 -13 -11 -14 -10 -9 4 5 14 24 23 24 12z m4074
-28 c14 -52 1 -338 -15 -338 -4 0 -14 7 -23 15 -13 13 -14 39 -10 168 3 84 7
158 10 165 6 20 31 14 38 -10z m-4114 -4 c0 -8 -4 -12 -10 -9 -5 3 -10 10 -10
16 0 5 5 9 10 9 6 0 10 -7 10 -16z m-2160 -180 c0 -124 -3 -154 -15 -164 -9
-7 -18 -10 -22 -7 -13 14 -22 99 -23 214 0 106 2 123 18 132 34 20 42 -13 42
-175z m147 104 c-3 -7 -5 -2 -5 12 0 14 2 19 5 13 2 -7 2 -19 0 -25z m322 -10
c6 -17 4 -28 -10 -41 -34 -32 -63 -167 -39 -182 6 -3 10 -15 10 -26 0 -15 -6
-20 -22 -17 -47 6 -57 109 -20 203 32 81 65 106 81 63z m5335 -42 c49 -97 44
-221 -8 -221 -19 0 -46 55 -59 120 -7 32 0 20 23 -42 7 -18 17 -30 22 -27 18
11 -1 94 -33 151 -25 44 -29 56 -18 69 21 26 43 11 73 -50z m-550 -20 c-88
-33 -125 -58 -203 -142 -69 -73 -91 -81 -52 -19 57 94 197 183 286 184 24 0
18 -5 -31 -23z m-4237 8 c-3 -3 -12 -4 -19 -1 -8 3 -5 6 6 6 11 1 17 -2 13 -5z
m2089 -65 c-12 -37 -14 -40 -15 -16 -1 24 18 71 26 63 2 -1 -3 -22 -11 -47z
m-2639 19 c-3 -8 -6 -5 -6 6 -1 11 2 17 5 13 3 -3 4 -12 1 -19z m2991 -61 c14
-29 6 -60 -9 -36 -12 20 -42 -12 -83 -91 -44 -84 -61 -159 -38 -167 25 -10 68
48 96 133 36 107 49 125 41 54 -12 -108 -95 -230 -157 -230 -20 0 -32 7 -39
23 -26 58 47 255 117 317 41 35 54 35 72 -3z m-757 7 c17 -15 17 -19 3 -53 -8
-20 -35 -89 -59 -153 -57 -152 -84 -203 -139 -268 -25 -30 -46 -58 -46 -62 0
-5 -22 -56 -50 -114 -27 -58 -54 -133 -60 -167 -16 -89 -24 -104 -69 -126 -36
-19 -41 -26 -51 -78 -7 -32 -10 -91 -7 -133 6 -93 61 -265 91 -286 12 -8 36
-25 55 -37 44 -28 106 -145 97 -181 -9 -38 -49 -79 -108 -111 -104 -57 -229
-32 -321 62 -21 22 -62 90 -94 154 -51 104 -57 124 -70 229 -9 72 -13 152 -9
213 4 78 2 109 -13 157 -16 52 -17 61 -4 79 8 12 24 21 37 21 31 0 50 17 85
78 50 86 83 172 91 241 10 80 32 110 93 128 81 23 247 203 247 267 0 13 9 35
21 50 17 22 28 26 74 26 45 0 61 6 111 40 67 45 71 46 95 24z m371 -46 c-7 -7
-12 -8 -12 -2 0 14 12 26 19 19 2 -3 -1 -11 -7 -17z m-2625 -20 c-3 -8 -6 -5
-6 6 -1 11 2 17 5 13 3 -3 4 -12 1 -19z m1858 8 c25 -18 25 -78 0 -126 -26
-50 -146 -167 -180 -176 -24 -6 -33 -2 -57 25 -32 36 -34 52 -13 111 31 89
129 180 195 180 20 0 45 -6 55 -14z m3824 -47 c-12 -57 -37 -114 -46 -106 -3
3 7 42 22 87 30 91 41 100 24 19z m-2110 37 c33 -17 104 -93 124 -132 26 -50
30 -90 12 -123 -41 -80 -126 -38 -233 116 -31 44 -31 116 0 137 28 20 61 20
97 2z m-2859 -176 c-35 -182 -243 -309 -425 -259 -69 19 -161 68 -209 110 -48
43 -106 130 -106 162 0 29 14 19 38 -26 43 -81 107 -144 190 -184 70 -35 83
-38 153 -37 118 3 183 27 248 93 56 57 84 108 96 174 5 22 11 35 16 30 5 -5 5
-32 -1 -63z m4640 13 c0 -43 -38 -96 -115 -162 -174 -151 -299 -164 -474 -51
-77 50 -80 61 -4 15 179 -108 387 -48 528 154 28 39 53 71 58 71 4 0 7 -12 7
-27z m-5663 -130 c115 -134 143 -188 107 -200 -20 -7 -72 46 -80 79 -4 19 -29
56 -61 90 -36 37 -53 63 -50 73 11 27 34 16 84 -42z m6023 42 c15 -18 5 -35
-20 -35 -10 0 -39 -23 -65 -52 -40 -45 -46 -57 -42 -84 4 -24 0 -37 -13 -49
-24 -22 -50 -13 -50 16 0 53 122 219 161 219 9 0 22 -7 29 -15z m-4483 -67
c-3 -8 -6 -5 -6 6 -1 11 2 17 5 13 3 -3 4 -12 1 -19z m-309 -130 c6 -129 -44
-328 -79 -316 -6 2 -18 16 -27 31 -16 27 -16 29 0 41 31 23 66 296 38 296 -14
0 -12 54 2 68 10 10 18 7 37 -12 21 -22 25 -36 29 -108z m3526 5 c-6 -130 4
-234 24 -241 6 -2 16 7 21 20 9 21 10 19 10 -14 1 -46 -18 -90 -37 -86 -45 9
-81 142 -84 310 -1 72 1 91 17 108 10 11 26 20 36 20 18 0 18 -8 13 -117z
m-589 56 c99 -118 143 -369 65 -369 -31 0 -98 88 -130 172 -39 100 -41 168 -5
203 31 32 38 31 70 -6z m-2324 -5 c35 -37 32 -99 -11 -199 -39 -89 -109 -168
-144 -163 -50 7 -54 91 -10 201 27 67 109 187 128 187 7 0 23 -12 37 -26z
m1222 -19 c11 -50 -3 -90 -54 -166 -44 -66 -102 -119 -129 -119 -11 0 -27 11
-36 25 -33 51 10 162 99 253 43 43 57 52 82 50 25 -3 30 -8 38 -43z m-1582
-32 c-8 -15 -10 -15 -11 -2 0 17 10 32 18 25 2 -3 -1 -13 -7 -23z m-54 -105
c-3 -7 -5 -2 -5 12 0 14 2 19 5 13 2 -7 2 -19 0 -25z m3573 2 c42 -22 65 -53
56 -77 -5 -11 -15 -7 -47 21 -23 19 -54 38 -70 41 -36 8 -39 35 -4 35 14 0 43
-9 65 -20z m684 0 c31 -11 34 -40 6 -65 -10 -9 -59 -30 -107 -46 -80 -26 -89
-27 -110 -14 -26 17 -27 19 -13 44 13 25 53 50 114 72 59 21 75 23 110 9z
m-5299 -20 c61 -29 117 -82 109 -103 -3 -9 -16 -17 -28 -17 -38 0 -184 45
-175 54 2 2 35 -3 73 -10 88 -19 106 -5 35 26 -39 16 -65 21 -101 18 -51 -5
-59 3 -31 34 21 23 67 23 118 -2z m401 -74 c23 -18 18 -24 -26 -30 -19 -3 -60
-9 -90 -15 -62 -10 -74 -7 -61 17 19 33 142 53 177 28z m4472 3 c28 -5 58 -16
68 -24 18 -13 18 -15 2 -31 -13 -13 -20 -14 -30 -6 -7 5 -46 14 -86 17 -77 8
-96 20 -67 42 23 16 48 16 113 2z m-800 -141 c11 -24 25 -70 31 -102 13 -72
14 -238 2 -286 -5 -19 -12 -67 -14 -105 -5 -74 -25 -157 -37 -150 -3 2 -19
-22 -34 -53 -36 -73 -143 -200 -214 -253 -29 -23 -83 -54 -118 -70 -173 -79
-304 -78 -420 2 -109 74 -155 157 -153 277 1 92 17 129 18 41 2 -131 52 -226
152 -286 87 -51 135 -60 227 -41 116 24 234 85 312 160 110 107 166 206 212
376 23 86 30 312 14 455 -4 42 -6 77 -3 77 3 0 14 -19 25 -42z m-1713 22 c4
-6 -8 -28 -25 -50 -18 -23 -41 -63 -51 -90 -23 -62 -26 -148 -4 -156 23 -9 -1
-46 -28 -42 -20 3 -22 9 -25 84 -3 94 18 166 69 227 30 37 52 46 64 27z m1569
-174 c25 -53 30 -134 12 -186 -9 -25 -16 -65 -16 -90 -1 -46 -23 -167 -33
-177 -3 -3 -11 -2 -17 2 -14 9 -6 74 20 157 16 52 16 66 5 155 -7 54 -18 111
-24 127 -8 21 -8 32 0 42 15 19 35 7 53 -30z m-2668 -73 c-6 -76 -3 -126 13
-225 24 -145 25 -162 11 -153 -23 14 -41 71 -60 197 -22 138 -20 199 6 250 28
54 37 33 30 -69z m-461 -28 c56 -127 73 -303 33 -329 -13 -8 -21 -7 -32 4 -17
18 -32 65 -18 56 19 -11 22 44 7 109 -16 69 -34 111 -68 157 l-21 28 24 25
c29 31 44 21 75 -50z m1016 0 c33 -121 47 -259 28 -271 -22 -13 -41 24 -45 87
-4 78 -22 167 -35 174 -13 9 -11 59 3 73 16 16 34 -6 49 -63z m2613 49 c22
-21 20 -56 -4 -86 -25 -33 -48 -164 -32 -180 24 -24 4 -108 -25 -108 -28 0
-53 39 -53 83 1 103 49 278 83 299 15 10 13 10 31 -8z m-3679 -183 c17 -86 14
-123 -4 -55 -13 51 -25 151 -17 143 3 -3 13 -43 21 -88z m1022 27 c-3 -8 -6
-5 -6 6 -1 11 2 17 5 13 3 -3 4 -12 1 -19z m-803 -59 c9 -46 8 -85 -3 -73 -12
13 -23 104 -12 104 5 0 11 -14 15 -31z m1342 -237 c14 -91 -2 -230 -39 -337
-23 -67 -39 -101 -50 -103 -31 -6 -29 26 7 106 48 110 60 182 53 310 -6 94 -5
105 8 88 8 -10 17 -39 21 -64z m-926 -73 c22 -29 22 -48 1 -35 -5 4 -20 20
-31 36 -17 24 -18 30 -6 30 8 0 24 -14 36 -31z m689 -79 c1 -54 -26 -115 -65
-152 -16 -15 -65 -44 -109 -65 -76 -35 -86 -37 -180 -38 -95 0 -103 2 -161 33
-34 19 -75 47 -90 64 -28 29 -27 28 54 -14 82 -42 86 -43 180 -43 89 0 103 3
167 33 39 18 81 43 93 55 31 28 57 81 67 132 4 22 12 49 17 60 11 19 11 19 19
0 4 -11 8 -40 8 -65z m-1095 11 c56 -60 116 -166 116 -208 0 -24 -29 -38 -60
-28 -32 10 -115 111 -149 182 l-32 65 22 24 c12 13 28 24 34 24 7 0 37 -27 69
-59z m3316 30 c14 -28 12 -44 -4 -38 -23 9 -62 -28 -101 -94 -41 -70 -42 -79
-15 -79 20 0 20 -1 3 -25 -27 -37 -83 -31 -83 9 0 62 130 246 173 246 9 0 21
-9 27 -19z m-1336 -225 c28 -75 33 -110 14 -104 -20 7 -46 59 -64 128 -14 55
-14 71 -3 124 l14 61 6 -70 c4 -38 19 -101 33 -139z m1010 -112 c9 -4 21 -15
26 -25 16 -28 -44 -87 -130 -129 -67 -32 -73 -34 -98 -19 -34 19 -39 48 -12
82 28 35 98 76 138 80 18 2 35 7 39 10 8 9 17 9 37 1z m-2668 -28 c58 -27 124
-88 124 -114 0 -47 -44 -53 -116 -17 -78 39 -124 82 -124 115 0 46 39 52 116
16z m818 -38 c15 -25 -31 -69 -106 -103 -69 -31 -108 -25 -108 18 0 28 17 45
80 81 52 30 116 32 134 4z m1068 -7 c52 -33 78 -66 78 -98 0 -17 -6 -23 -22
-23 -26 0 -93 30 -123 54 -11 9 6 4 38 -10 59 -27 74 -27 64 0 -9 23 -109 77
-134 73 -24 -4 -33 17 -10 26 30 12 66 5 109 -22z m380 -91 c38 -11 64 -41 53
-60 -9 -15 -62 -40 -69 -33 -3 3 2 11 11 18 49 36 -68 50 -125 15 -37 -23 -52
-19 -52 11 0 14 13 26 43 39 48 22 85 25 139 10z m-1811 -17 c35 -21 37 -46 7
-67 -40 -28 -218 1 -218 35 0 7 7 21 17 31 22 25 152 26 194 1z m1769 -73 c18
-12 2 -12 -25 0 -13 6 -15 9 -5 9 8 0 22 -4 30 -9z m-53 -6 c-3 -3 -12 -4 -19
-1 -8 3 -5 6 6 6 11 1 17 -2 13 -5z"/>
<path d="M3471 6284 c0 -11 3 -14 6 -6 3 7 2 16 -1 19 -3 4 -6 -2 -5 -13z"/>
<path d="M3424 5790 c-66 -26 -126 -78 -174 -152 -64 -99 -67 -219 -9 -329 66
-123 174 -184 324 -184 204 1 369 198 336 402 -19 121 -78 200 -190 252 -76
35 -211 41 -287 11z m339 -168 c23 -20 22 -44 -3 -59 -19 -13 -150 -182 -196
-254 -13 -21 -30 -39 -36 -39 -14 0 -158 144 -158 157 0 5 -13 22 -30 38 -39
37 -38 52 4 72 47 22 80 11 118 -42 18 -24 38 -46 44 -49 6 -2 58 42 114 99
57 57 108 101 114 98 6 -3 19 -13 29 -21z"/>
<path d="M171 4825 c0 -99 1 -108 14 -91 19 25 19 86 1 151 l-14 50 -1 -110z"/>
<path d="M257 4443 c-14 -14 -6 -48 28 -119 37 -78 82 -125 97 -102 19 31 8
85 -31 146 -43 66 -77 93 -94 75z"/>
<path d="M6790 4433 c-35 -39 -100 -166 -100 -194 0 -24 29 -32 56 -14 48 31
116 220 86 239 -5 3 -24 -11 -42 -31z"/>
<path d="M534 3984 c16 -42 124 -142 171 -157 67 -23 75 30 13 90 -52 49 -116
83 -159 83 -24 0 -30 -3 -25 -16z"/>
<path d="M6448 3970 c-32 -10 -128 -72 -152 -99 -46 -50 13 -78 88 -41 49 23
140 114 133 133 -5 15 -34 18 -69 7z"/>
<path d="M2830 3680 c0 -5 4 -10 9 -10 6 0 13 5 16 10 3 6 -1 10 -9 10 -9 0
-16 -4 -16 -10z"/>
<path d="M2746 3609 c-19 -19 -19 -19 2 -19 15 0 22 6 22 20 0 24 0 24 -24 -1z"/>
<path d="M805 2940 c-27 -27 -46 -52 -42 -57 5 -4 18 5 29 20 12 16 31 32 44
37 12 5 28 18 34 30 19 36 -11 22 -65 -30z"/>
<path d="M1901 1344 c0 -11 3 -14 6 -6 3 7 2 16 -1 19 -3 4 -6 -2 -5 -13z"/>
<path d="M1003 3713 c-42 -16 22 -74 114 -103 88 -27 111 -26 125 6 11 24 9
29 -15 50 -46 40 -176 67 -224 47z"/>
<path d="M5918 3701 c-72 -20 -178 -67 -178 -80 0 -4 11 -18 25 -31 20 -19 31
-22 67 -17 72 11 113 26 157 57 51 37 61 58 36 76 -23 17 -24 17 -107 -5z"/>
<path d="M4801 2922 c-62 -19 -48 -66 25 -82 61 -15 187 -12 209 4 25 18 13
44 -30 62 -40 17 -169 27 -204 16z"/>
<path d="M2162 2920 c-104 -16 -136 -42 -90 -74 30 -22 168 -22 208 -1 31 16
39 45 18 63 -20 16 -77 21 -136 12z"/>
<path d="M5362 2900 c-32 -14 -25 -41 18 -63 29 -15 51 -18 123 -14 49 3 93 9
98 14 14 14 1 39 -28 52 -35 16 -182 24 -211 11z"/>
<path d="M1598 2900 c-159 -27 -128 -89 39 -76 92 7 138 22 138 46 0 31 -84
45 -177 30z"/>
<path d="M1132 2739 c-103 -53 -147 -120 -69 -105 65 13 169 99 152 126 -9 15
-16 13 -83 -21z"/>
<path d="M5875 2771 c-15 -25 24 -67 99 -108 72 -40 103 -22 49 29 -60 54
-137 96 -148 79z"/>
<path d="M3042 2558 c-50 -24 -142 -110 -142 -132 0 -8 7 -22 16 -30 14 -14
19 -14 52 0 68 28 157 114 164 159 4 28 -36 30 -90 3z"/>
<path d="M4008 2562 c-13 -47 65 -138 150 -176 37 -17 45 -18 53 -5 23 35 -27
115 -102 161 -62 38 -95 45 -101 20z"/>
<path d="M2664 2211 c-38 -23 -103 -98 -110 -128 -8 -32 2 -53 25 -53 21 0
118 101 132 138 9 25 4 62 -9 62 -4 0 -21 -8 -38 -19z"/>
<path d="M4375 2200 c-18 -29 98 -185 133 -178 10 2 18 15 20 31 8 67 -124
194 -153 147z"/>
<path d="M4674 1774 c11 -80 77 -204 109 -204 36 0 -58 241 -97 249 -17 3 -18
-1 -12 -45z"/>
<path d="M2366 1785 c-34 -44 -74 -131 -78 -169 -4 -39 25 -59 46 -31 26 35
85 162 92 199 5 32 4 36 -14 36 -11 0 -32 -16 -46 -35z"/>
<path d="M3593 1830 c-50 -30 -116 -124 -117 -167 0 -20 4 -38 10 -40 24 -8
102 92 138 179 19 45 10 53 -31 28z"/>
<path d="M6144 1656 c-28 -13 -54 -31 -57 -40 -8 -20 -4 -20 41 3 20 10 56 24
80 31 23 7 42 17 42 22 0 16 -55 8 -106 -16z"/>
<path d="M1860 673 c0 -26 64 -132 98 -162 l27 -25 3 28 c4 36 -38 106 -88
146 -35 27 -40 29 -40 13z"/>
<path d="M4830 319 c-55 -25 -80 -47 -80 -71 0 -27 25 -22 93 18 34 20 68 39
75 43 24 11 17 26 -13 28 -16 1 -50 -7 -75 -18z"/>
<path d="M2160 327 c0 -7 12 -22 28 -33 39 -28 131 -69 138 -61 15 15 -10 39
-75 72 -77 38 -91 42 -91 22z"/>
<path d="M2956 270 c-46 -30 -58 -58 -20 -52 27 5 124 62 124 73 0 19 -58 8
-104 -21z"/>
<path d="M2540 166 c0 -17 138 -32 154 -16 18 18 -14 30 -86 30 -51 0 -68 -3
-68 -14z"/>
<path d="M1035 5189 c-87 -46 -125 -100 -125 -177 0 -38 6 -58 29 -88 44 -61
86 -92 137 -100 143 -21 244 57 244 189 0 108 -19 122 -72 55 -19 -24 -60 -76
-92 -117 l-59 -73 -39 43 c-21 24 -50 61 -65 82 -24 35 -25 39 -10 54 15 15
20 13 62 -22 l47 -38 31 39 c17 22 52 60 79 86 l48 48 -27 17 c-41 27 -139 28
-188 2z"/>
</g>
</svg>
